<svg width="24" height="24" viewBox="0 0 24 24" fill="none" xmlns="http://www.w3.org/2000/svg">
<path fill-rule="evenodd" clip-rule="evenodd" d="M12 2C6.47715 2 2 6.47715 2 12C2 17.5228 6.47715 22 12 22C17.5228 22 22 17.5228 22 12C22 6.47715 17.5228 2 12 2ZM17.0705 8.67572C17.4437 8.26861 17.4162 7.63604 17.0091 7.26285C16.6019 6.88965 15.9694 6.91716 15.5962 7.32428L15.0128 7.96064L9.91667 13.5201L7.73715 11.1425C7.36396 10.7353 6.73139 10.7078 6.32428 11.081C5.91716 11.4542 5.88965 12.0868 6.26285 12.4939L9.03208 15.5149C9.50769 16.0337 10.3257 16.0337 10.8013 15.5149L16.4872 9.31209L17.0705 8.67572Z" fill="#1273E4"/>
</svg>
