<svg width="26" height="26" viewBox="0 0 26 26" fill="none" xmlns="http://www.w3.org/2000/svg">
<g clip-path="url(#clip0_205_68)">
<path d="M4 5.5C4 2.46243 6.46243 0 9.5 0C12.5376 0 15 2.46243 15 5.5C15 8.53757 12.5376 11 9.5 11C6.46243 11 4 8.53757 4 5.5Z" fill="#B7BBBF"/>
<path d="M0 22.5C0 17.2533 4.25329 13 9.5 13C14.7467 13 19 17.2533 19 22.5V22.5034C19 22.5565 18.9995 22.6098 18.9986 22.6626C18.9928 23.0073 18.8099 23.3246 18.5146 23.5025C15.8809 25.0882 12.7954 26 9.5 26C6.20457 26 3.11906 25.0882 0.485414 23.5025C0.190084 23.3246 0.00716388 23.0073 0.00136852 22.6626C0.000459671 22.6085 0 22.5543 0 22.5Z" fill="#B7BBBF"/>
<path d="M22 7C22 6.44772 21.5523 6 21 6C20.4477 6 20 6.44772 20 7V10H17C16.4477 10 16 10.4477 16 11C16 11.5523 16.4477 12 17 12H20V15C20 15.5523 20.4477 16 21 16C21.5523 16 22 15.5523 22 15V12H25C25.5523 12 26 11.5523 26 11C26 10.4477 25.5523 10 25 10H22V7Z" fill="#B7BBBF"/>
</g>
<defs>
<clipPath id="clip0_205_68">
<rect width="26" height="26" fill="white"/>
</clipPath>
</defs>
</svg>
