<svg width="44" height="44" viewBox="0 0 44 44" fill="none" xmlns="http://www.w3.org/2000/svg">
<g clip-path="url(#clip0_205_78)">
<path d="M43.5213 20.1871C43.5213 17.3647 41.7981 14.9395 39.2889 13.6831C40.2357 11.0923 39.6237 8.12111 37.3893 6.05591C35.2305 4.06031 32.1561 3.47111 29.4213 4.22231C28.1085 1.77191 25.4025 0.0703125 22.2429 0.0703125C19.1889 0.0703125 16.5657 1.66271 15.2061 3.98111C12.4029 3.10631 9.18812 3.67271 6.95372 5.73671C4.79492 7.73231 4.15772 10.5739 4.97012 13.1023C2.31812 14.3155 0.478516 16.8163 0.478516 19.7371C0.478516 22.5595 2.20172 24.9847 4.71092 26.2411C3.76412 28.8319 4.37612 31.8031 6.61052 33.8683C8.76932 35.8639 11.8437 36.4531 14.5785 35.7019C15.8913 38.1523 18.5973 39.8539 21.7569 39.8539C24.8109 39.8539 27.4341 38.2615 28.7937 35.9431C31.5969 36.8179 34.8117 36.2515 37.0461 34.1875C39.2049 32.1919 39.8421 29.3503 39.0297 26.8219C41.6817 25.6087 43.5213 23.1079 43.5213 20.1871Z" fill="#E2E5E8"/>
<path d="M5.43788 43.2703C7.32471 43.2703 8.85428 41.7407 8.85428 39.8539C8.85428 37.9671 7.32471 36.4375 5.43788 36.4375C3.55106 36.4375 2.02148 37.9671 2.02148 39.8539C2.02148 41.7407 3.55106 43.2703 5.43788 43.2703Z" fill="#E2E5E8"/>
</g>
<defs>
<clipPath id="clip0_205_78">
<rect width="44" height="44" fill="white"/>
</clipPath>
</defs>
</svg>
