<svg width="11" height="14" viewBox="0 0 11 14" fill="none" xmlns="http://www.w3.org/2000/svg">
<g clip-path="url(#clip0_205_65)">
<path d="M5.50039 5.40156C6.82587 5.40156 7.90039 4.32705 7.90039 3.00156C7.90039 1.67608 6.82587 0.601562 5.50039 0.601562C4.17491 0.601562 3.10039 1.67608 3.10039 3.00156C3.10039 4.32705 4.17491 5.40156 5.50039 5.40156Z" fill="#989CA1"/>
<path d="M0.272527 10.5964C0.11662 11.0028 0.25587 11.4583 0.59975 11.7252C1.95364 12.776 3.654 13.4016 5.50048 13.4016C7.34884 13.4016 9.0508 12.7747 10.4054 11.722C10.7491 11.4549 10.888 10.9993 10.7318 10.593C9.92444 8.49239 7.88774 7.00156 5.50284 7.00156C3.11664 7.00156 1.07902 8.49402 0.272527 10.5964Z" fill="#989CA1"/>
</g>
<defs>
<clipPath id="clip0_205_65">
<rect width="11" height="14" fill="white"/>
</clipPath>
</defs>
</svg>
