<svg width="22" height="18" viewBox="0 0 22 18" fill="none" xmlns="http://www.w3.org/2000/svg">
<g clip-path="url(#clip0_205_54)">
<path d="M11 6C8.92893 6 7.25 7.67893 7.25 9.75C7.25 11.8211 8.92893 13.5 11 13.5C13.0711 13.5 14.75 11.8211 14.75 9.75C14.75 7.67893 13.0711 6 11 6Z" fill="#989CA1"/>
<path fill-rule="evenodd" clip-rule="evenodd" d="M8.34429 0.0711266C9.22361 0.0239085 10.109 0 11 0C11.891 0 12.7764 0.0239085 13.6557 0.0711266C14.6233 0.123086 15.4854 0.656119 15.9882 1.46184L16.8094 2.77786C17.0485 3.16099 17.4544 3.42131 17.9195 3.48741C18.3049 3.54218 18.6888 3.60145 19.0713 3.66518C20.5031 3.90378 21.5 5.15785 21.5 6.57403V15C21.5 16.6569 20.1569 18 18.5 18H3.5C1.84315 18 0.5 16.6569 0.5 15V6.57402C0.5 5.15784 1.49686 3.90377 2.92872 3.66517C3.31116 3.60144 3.6951 3.54217 4.08048 3.4874C4.54556 3.42131 4.95152 3.16099 5.19061 2.77785L6.01181 1.46184C6.5146 0.656118 7.37667 0.123086 8.34429 0.0711266ZM5.75 9.75C5.75 6.8505 8.1005 4.5 11 4.5C13.8995 4.5 16.25 6.8505 16.25 9.75C16.25 12.6495 13.8995 15 11 15C8.1005 15 5.75 12.6495 5.75 9.75ZM17.75 8.25C18.1642 8.25 18.5 7.91421 18.5 7.5C18.5 7.08579 18.1642 6.75 17.75 6.75C17.3358 6.75 17 7.08579 17 7.5C17 7.91421 17.3358 8.25 17.75 8.25Z" fill="#989CA1"/>
</g>
<defs>
<clipPath id="clip0_205_54">
<rect width="22" height="18" fill="white"/>
</clipPath>
</defs>
</svg>
