<svg width="20" height="20" viewBox="0 0 20 20" fill="none" xmlns="http://www.w3.org/2000/svg">
<g clip-path="url(#clip0_205_89)">
<path d="M0.400391 3.09844C0.400391 1.60727 1.60922 0.398438 3.10039 0.398438H10.9004C12.3916 0.398438 13.6004 1.60727 13.6004 3.09844V4.59844H9.10039C6.61511 4.59844 4.60039 6.61316 4.60039 9.09844V13.5984H3.10039C1.60922 13.5984 0.400391 12.3896 0.400391 10.8984V3.09844Z" fill="#B7BBBF"/>
<path d="M9.10039 6.39844C7.60922 6.39844 6.40039 7.60727 6.40039 9.09844V16.8984C6.40039 18.3896 7.60922 19.5984 9.10039 19.5984H16.9004C18.3916 19.5984 19.6004 18.3896 19.6004 16.8984V9.09844C19.6004 7.60727 18.3916 6.39844 16.9004 6.39844H9.10039Z" fill="#B7BBBF"/>
</g>
<defs>
<clipPath id="clip0_205_89">
<rect width="20" height="20" fill="white"/>
</clipPath>
</defs>
</svg>
