<svg width="15" height="12" viewBox="0 0 15 12" fill="none" xmlns="http://www.w3.org/2000/svg">
<g clip-path="url(#clip0_205_107)">
<path fill-rule="evenodd" clip-rule="evenodd" d="M2.54116 11.3937C2.54116 11.5545 2.60504 11.7087 2.71875 11.8224C2.83246 11.9361 2.98668 12 3.14749 12H11.404C11.5648 12 11.719 11.9361 11.8327 11.8224C11.9464 11.7087 12.0103 11.5545 12.0103 11.3937V10.6357H2.54116V11.3937ZM12.1031 4.51417L9.76868 5.72078L7.80779 2.70426C7.75016 2.61555 7.67128 2.54264 7.5783 2.49217C7.48533 2.4417 7.38122 2.41526 7.27543 2.41526C7.16964 2.41526 7.06553 2.4417 6.97255 2.49217C6.87958 2.54264 6.8007 2.61555 6.74306 2.70426L4.78217 5.72078L2.44778 4.51417C2.3414 4.45928 2.22168 4.43555 2.10241 4.44572C1.98314 4.45588 1.86917 4.49954 1.77361 4.57164C1.67806 4.64375 1.60482 4.74138 1.56233 4.85329C1.51984 4.96519 1.50982 5.08683 1.53342 5.20418L2.44899 9.72624H12.1019L13.0174 5.20418C13.1235 4.68152 12.5766 4.26921 12.1031 4.51417ZM7.27543 1.9039C7.5279 1.9039 7.77003 1.8036 7.94856 1.62508C8.12708 1.44655 8.22738 1.20442 8.22738 0.951948C8.22738 0.699476 8.12708 0.457344 7.94856 0.278819C7.77003 0.100294 7.5279 0 7.27543 0C7.02296 0 6.78082 0.100294 6.6023 0.278819C6.42377 0.457344 6.32348 0.699476 6.32348 0.951948C6.32348 1.20442 6.42377 1.44655 6.6023 1.62508C6.78082 1.8036 7.02296 1.9039 7.27543 1.9039ZM13.5995 2.41564C13.347 2.41564 13.1049 2.51594 12.9264 2.69446C12.7479 2.87299 12.6476 3.11512 12.6476 3.36759C12.6476 3.62006 12.7479 3.86219 12.9264 4.04072C13.1049 4.21924 13.347 4.31954 13.5995 4.31954C13.852 4.31954 14.0941 4.21924 14.2726 4.04072C14.4512 3.86219 14.5515 3.62006 14.5515 3.36759C14.5515 3.11512 14.4512 2.87299 14.2726 2.69446C14.0941 2.51594 13.852 2.41564 13.5995 2.41564ZM1.9039 3.36759C1.9039 3.11512 1.8036 2.87299 1.62508 2.69446C1.44655 2.51594 1.20442 2.41564 0.951948 2.41564C0.699476 2.41564 0.457344 2.51594 0.278819 2.69446C0.100294 2.87299 0 3.11512 0 3.36759C0 3.62006 0.100294 3.86219 0.278819 4.04072C0.457344 4.21924 0.699476 4.31954 0.951948 4.31954C1.20442 4.31954 1.44655 4.21924 1.62508 4.04072C1.8036 3.86219 1.9039 3.62006 1.9039 3.36759Z" fill="#3D92F7"/>
</g>
<defs>
<clipPath id="clip0_205_107">
<rect width="15" height="12" fill="white"/>
</clipPath>
</defs>
</svg>
