<svg width="20" height="4" viewBox="0 0 20 4" fill="none" xmlns="http://www.w3.org/2000/svg">
<g clip-path="url(#clip0_205_74)">
<path d="M3 2C3 2.55228 2.55228 3 2 3C1.44772 3 1 2.55228 1 2C1 1.44772 1.44772 1 2 1C2.55228 1 3 1.44772 3 2Z" stroke="#7A7F86" stroke-width="1.5" stroke-linecap="round" stroke-linejoin="round"/>
<path d="M11 2C11 2.55228 10.5523 3 10 3C9.44772 3 9 2.55228 9 2C9 1.44772 9.44772 1 10 1C10.5523 1 11 1.44772 11 2Z" stroke="#7A7F86" stroke-width="1.5" stroke-linecap="round" stroke-linejoin="round"/>
<path d="M19 2C19 2.55228 18.5523 3 18 3C17.4477 3 17 2.55228 17 2C17 1.44772 17.4477 1 18 1C18.5523 1 19 1.44772 19 2Z" stroke="#7A7F86" stroke-width="1.5" stroke-linecap="round" stroke-linejoin="round"/>
</g>
<defs>
<clipPath id="clip0_205_74">
<rect width="20" height="4" fill="white"/>
</clipPath>
</defs>
</svg>
