<svg width="16" height="18" viewBox="0 0 16 18" fill="none" xmlns="http://www.w3.org/2000/svg">
<g clip-path="url(#clip0_205_100)">
<path fill-rule="evenodd" clip-rule="evenodd" d="M4.25153 4H7.37305H7.375H10.1915C11.7429 4.00223 12.9999 5.26058 12.9999 6.8125V14.625C14.3806 14.625 15.4999 13.5057 15.4999 12.125V4.09018C15.4999 2.83568 14.5626 1.74717 13.2799 1.6407C13.0934 1.62522 12.9066 1.61101 12.7194 1.59806C12.3028 0.797062 11.4653 0.25 10.5 0.25H9.25C8.28473 0.25 7.44723 0.797056 7.03064 1.59804C6.84339 1.611 6.65649 1.62522 6.46995 1.6407C5.21804 1.74461 4.29518 2.78391 4.25153 4ZM9.25 1.5C8.55964 1.5 8 2.05964 8 2.75H11.75C11.75 2.05964 11.1904 1.5 10.5 1.5H9.25Z" fill="#CFD2D7"/>
<path fill-rule="evenodd" clip-rule="evenodd" d="M0.5 6.8125C0.5 5.94956 1.19956 5.25 2.0625 5.25H10.1875C11.0504 5.25 11.75 5.94956 11.75 6.8125V16.1875C11.75 17.0504 11.0504 17.75 10.1875 17.75H2.0625C1.19956 17.75 0.5 17.0504 0.5 16.1875V6.8125ZM3 9C3 8.65482 3.27982 8.375 3.625 8.375H3.63125C3.97643 8.375 4.25625 8.65482 4.25625 9V9.00625C4.25625 9.35143 3.97643 9.63125 3.63125 9.63125H3.625C3.27982 9.63125 3 9.35143 3 9.00625V9ZM4.875 9C4.875 8.65482 5.15482 8.375 5.5 8.375H8.625C8.97018 8.375 9.25 8.65482 9.25 9C9.25 9.34518 8.97018 9.625 8.625 9.625H5.5C5.15482 9.625 4.875 9.34518 4.875 9ZM3 11.5C3 11.1548 3.27982 10.875 3.625 10.875H3.63125C3.97643 10.875 4.25625 11.1548 4.25625 11.5V11.5063C4.25625 11.8514 3.97643 12.1313 3.63125 12.1313H3.625C3.27982 12.1313 3 11.8514 3 11.5063V11.5ZM4.875 11.5C4.875 11.1548 5.15482 10.875 5.5 10.875H8.625C8.97018 10.875 9.25 11.1548 9.25 11.5C9.25 11.8452 8.97018 12.125 8.625 12.125H5.5C5.15482 12.125 4.875 11.8452 4.875 11.5ZM3 14C3 13.6548 3.27982 13.375 3.625 13.375H3.63125C3.97643 13.375 4.25625 13.6548 4.25625 14V14.0063C4.25625 14.3514 3.97643 14.6313 3.63125 14.6313H3.625C3.27982 14.6313 3 14.3514 3 14.0063V14ZM4.875 14C4.875 13.6548 5.15482 13.375 5.5 13.375H8.625C8.97018 13.375 9.25 13.6548 9.25 14C9.25 14.3452 8.97018 14.625 8.625 14.625H5.5C5.15482 14.625 4.875 14.3452 4.875 14Z" fill="#CFD2D7"/>
</g>
<defs>
<clipPath id="clip0_205_100">
<rect width="16" height="18" fill="white"/>
</clipPath>
</defs>
</svg>
