<svg width="22" height="20" viewBox="0 0 22 20" fill="none" xmlns="http://www.w3.org/2000/svg">
<g clip-path="url(#clip0_205_81)">
<path fill-rule="evenodd" clip-rule="evenodd" d="M3.84836 0.771003C6.18302 0.427728 8.57113 0.25 11.0003 0.25C13.4292 0.25 15.8171 0.427696 18.1516 0.770912C20.1299 1.06177 21.5 2.79445 21.5 4.74056V10.7595C21.5 12.7056 20.1299 14.4382 18.1516 14.7291C17.0054 14.8976 15.8464 15.0262 14.6759 15.1135C14.5514 15.1228 14.4431 15.1875 14.379 15.2835L11.624 19.416C11.4849 19.6247 11.2508 19.75 11 19.75C10.7492 19.75 10.5151 19.6247 10.376 19.416L7.62092 15.2835C7.5569 15.1874 7.44853 15.1227 7.32408 15.1134C6.15358 15.0261 4.99452 14.8975 3.84836 14.729C1.87004 14.4381 0.5 12.7054 0.5 10.7593V4.74064C0.5 2.79455 1.87004 1.06188 3.84836 0.771003ZM5.75 6.25C5.75 5.83579 6.08579 5.5 6.5 5.5H15.5C15.9142 5.5 16.25 5.83579 16.25 6.25C16.25 6.66421 15.9142 7 15.5 7H6.5C6.08579 7 5.75 6.66421 5.75 6.25ZM6.5 8.5C6.08579 8.5 5.75 8.83579 5.75 9.25C5.75 9.66421 6.08579 10 6.5 10H11C11.4142 10 11.75 9.66421 11.75 9.25C11.75 8.83579 11.4142 8.5 11 8.5H6.5Z" fill="#B7BBBF"/>
</g>
<defs>
<clipPath id="clip0_205_81">
<rect width="22" height="20" fill="white"/>
</clipPath>
</defs>
</svg>
