<svg width="20" height="20" viewBox="0 0 20 20" fill="none" xmlns="http://www.w3.org/2000/svg">
<g clip-path="url(#clip0_205_61)">
<path fill-rule="evenodd" clip-rule="evenodd" d="M3.24903 6.9998C3.24914 3.27197 6.27118 0.25 9.99903 0.25C13.727 0.25 16.749 3.27208 16.749 7L16.7488 7.04919V7.75C16.7488 9.87313 17.5499 11.8074 18.8674 13.2699C19.0339 13.4547 19.0979 13.71 19.0383 13.9516C18.9787 14.1931 18.8033 14.3893 18.5699 14.4755C17.0259 15.0455 15.4096 15.4659 13.7386 15.7192C13.7455 15.812 13.749 15.9056 13.749 16C13.749 18.0711 12.0701 19.75 9.99903 19.75C7.92797 19.75 6.24903 18.0711 6.24903 16C6.24903 15.9056 6.25254 15.812 6.25942 15.7192C4.58836 15.4659 2.9719 15.0455 1.42777 14.4755C1.19441 14.3893 1.01895 14.1931 0.959352 13.9516C0.899757 13.71 0.963787 13.4547 1.13029 13.2699C2.44782 11.8074 3.24884 9.87313 3.24884 7.75L3.24903 6.9998ZM7.75124 15.8993C7.74977 15.9326 7.74903 15.9662 7.74903 16C7.74903 17.2426 8.75639 18.25 9.99903 18.25C11.2417 18.25 12.249 17.2426 12.249 16C12.249 15.9662 12.2483 15.9326 12.2468 15.8992C11.5063 15.9659 10.7564 16 9.99884 16C9.24138 16 8.49169 15.966 7.75124 15.8993Z" fill="#B7BBBF"/>
</g>
<defs>
<clipPath id="clip0_205_61">
<rect width="20" height="20" fill="white"/>
</clipPath>
</defs>
</svg>
