<svg width="23" height="22" viewBox="0 0 23 22" fill="none" xmlns="http://www.w3.org/2000/svg">
<g clip-path="url(#clip0_205_72)">
<path fill-rule="evenodd" clip-rule="evenodd" d="M11.8349 4.45426L2.77288 13.5163L1.53688 18.1263L0.723885 21.1633C0.701303 21.2481 0.701416 21.3374 0.724212 21.4222C0.747008 21.507 0.791686 21.5843 0.853771 21.6464C0.915855 21.7085 0.993166 21.7531 1.07796 21.7759C1.16275 21.7987 1.25204 21.7988 1.33688 21.7763L4.37189 20.9623L8.98288 19.7263H8.98388L18.0459 10.6643L11.8359 4.45426H11.8349ZM21.7929 5.50426L16.9969 0.707263C16.9041 0.614317 16.7939 0.540579 16.6726 0.490268C16.5513 0.439958 16.4212 0.414062 16.2899 0.414063C16.1586 0.414062 16.0285 0.439958 15.9072 0.490268C15.7859 0.540579 15.6757 0.614317 15.5829 0.707263L13.1079 3.18126L19.3189 9.39226L21.7929 6.91726C21.8858 6.82448 21.9596 6.71427 22.0099 6.59296C22.0602 6.47164 22.0861 6.3416 22.0861 6.21026C22.0861 6.07893 22.0602 5.94889 22.0099 5.82757C21.9596 5.70626 21.8858 5.59705 21.7929 5.50426Z" fill="white"/>
</g>
<defs>
<clipPath id="clip0_205_72">
<rect width="23" height="22" fill="white"/>
</clipPath>
</defs>
</svg>
