<svg width="24" height="24" viewBox="0 0 24 24" fill="none" xmlns="http://www.w3.org/2000/svg">
<g clip-path="url(#clip0_206_58)">
<mask id="mask0_206_58" style="mask-type:luminance" maskUnits="userSpaceOnUse" x="0" y="0" width="24" height="24">
<path d="M24 0H0V24H24V0Z" fill="white"/>
</mask>
<g mask="url(#mask0_206_58)">
<path d="M0.667649 2.86701L2.52718 9.59613L8.79555 4.41805L2.53909 1.32127C1.50904 0.811537 0.361148 1.75884 0.667649 2.86701Z" fill="#2272EB"/>
<path d="M16.8119 16.9892H13.7701C13.4324 16.9892 13.159 16.7158 13.159 16.3782C13.159 16.0406 13.4324 15.7672 13.7701 15.7672H21.4087C21.5213 15.7672 21.6285 15.75 21.7331 15.7242C21.9284 14.9165 22.0429 14.0778 22.0429 13.2106C22.0429 13.202 22.0416 13.1947 22.0416 13.1861C21.8523 13.0861 21.6378 13.0272 21.4087 13.0272C20.6534 13.0272 20.0391 13.6415 20.0391 14.3975C20.0391 14.7352 19.7657 15.0086 19.4281 15.0086C19.0905 15.0086 18.8177 14.7352 18.8177 14.3975C18.8177 12.9683 19.9802 11.8059 21.4087 11.8059C21.5954 11.8059 21.7748 11.8323 21.9503 11.8701C21.2896 6.60195 16.8033 2.52344 11.3558 2.52344C5.45283 2.52344 0.667969 7.3083 0.667969 13.2113C0.667969 19.1142 5.45283 23.8984 11.3551 23.8984C15.9255 23.8984 19.8147 21.024 21.3426 16.9892H16.8119Z" fill="#FFC84D"/>
<path d="M11.2294 2.05949L10.3225 0.978107C10.1336 0.752884 9.7979 0.723431 9.57268 0.912322L8.49129 1.81926C8.26607 2.00815 8.23661 2.34386 8.4255 2.56908L9.33245 3.65047C9.52134 3.87569 9.85704 3.90514 10.0823 3.71625L11.1636 2.80931C11.3889 2.62042 11.4183 2.28471 11.2294 2.05949Z" fill="#B44BD7"/>
<path d="M18.6731 3.42933L17.0973 4.22413C16.7696 4.38944 16.6379 4.78913 16.8032 5.11687L17.598 6.69263C17.7633 7.02037 18.163 7.15205 18.4908 6.98674L20.0665 6.19194C20.3943 6.02663 20.5259 5.62694 20.3606 5.2992L19.5658 3.72343C19.4005 3.3957 19.0008 3.26402 18.6731 3.42933Z" fill="#F66570"/>
<path d="M9.34845 19.3339L7.97499 19.6587C7.68893 19.7264 7.51189 20.0131 7.57956 20.2992L7.90443 21.6727C7.97209 21.9587 8.25884 22.1358 8.54489 22.0681L9.91835 21.7432C10.2044 21.6756 10.3814 21.3888 10.3138 21.1028L9.98891 19.7293C9.92125 19.4432 9.6345 19.2662 9.34845 19.3339Z" fill="white"/>
<path d="M3.68521 17.9091L3.15057 16.2272C3.03937 15.8773 2.66564 15.6839 2.31582 15.7951L0.633884 16.3297C0.284063 16.4409 0.0906208 16.8147 0.201819 17.1645L0.736458 18.8464C0.847656 19.1962 1.22139 19.3897 1.57121 19.2785L3.25315 18.7438C3.60297 18.6326 3.79641 18.2589 3.68521 17.9091Z" fill="#6376FF"/>
<path d="M23.815 13.4444C23.4992 12.65 22.8021 12.0523 21.9515 11.8689C21.776 11.8312 21.5966 11.8047 21.41 11.8047C19.9807 11.8047 18.8189 12.9671 18.8189 14.3964C18.8189 14.734 19.0923 15.0074 19.4293 15.0074C19.7662 15.0074 20.0403 14.734 20.0403 14.3964C20.0403 13.641 20.6546 13.0261 21.41 13.0261C21.639 13.0261 21.8535 13.085 22.0428 13.1849C22.3798 13.3637 22.6346 13.6781 22.7319 14.0568C22.7598 14.166 22.7796 14.2785 22.7796 14.3964C22.7796 15.0398 22.3328 15.5767 21.7343 15.723C21.6297 15.7488 21.5218 15.766 21.41 15.766H13.7713C13.7474 15.766 13.7269 15.7773 13.7037 15.7799C13.5872 15.8753 13.4661 15.962 13.3516 16.0487C13.6375 16.2645 13.9917 16.5975 14.183 16.9881H21.4093C22.8385 16.9881 24.0003 15.8256 24.0003 14.397C24.0003 14.0601 23.9315 13.7403 23.8136 13.4451L23.815 13.4444Z" fill="#2272EB"/>
<path d="M13.9917 1.99126C14.5416 1.99126 14.9874 1.5455 14.9874 0.995632C14.9874 0.445759 14.5416 0 13.9917 0C13.4419 0 12.9961 0.445759 12.9961 0.995632C12.9961 1.5455 13.4419 1.99126 13.9917 1.99126Z" fill="#EDCCF8"/>
<path d="M2.09719 22.71C2.64707 22.71 3.09283 22.2643 3.09283 21.7144C3.09283 21.1645 2.64707 20.7188 2.09719 20.7188C1.54732 20.7188 1.10156 21.1645 1.10156 21.7144C1.10156 22.2643 1.54732 22.71 2.09719 22.71Z" fill="#EDCCF8"/>
<path d="M20.6519 22.5069C21.2018 22.5069 21.6475 22.0611 21.6475 21.5113C21.6475 20.9614 21.2018 20.5156 20.6519 20.5156C20.102 20.5156 19.6562 20.9614 19.6562 21.5113C19.6562 22.0611 20.102 22.5069 20.6519 22.5069Z" fill="#B44BD7"/>
<path d="M22.4644 8.46001C23.0143 8.46001 23.46 8.01425 23.46 7.46438C23.46 6.91451 23.0143 6.46875 22.4644 6.46875C21.9145 6.46875 21.4688 6.91451 21.4688 7.46438C21.4688 8.01425 21.9145 8.46001 22.4644 8.46001Z" fill="#7896FF"/>
<path d="M13.3516 16.0473C13.4662 15.9606 13.5873 15.8739 13.7038 15.7785C14.0202 15.5197 14.2943 15.1966 14.2599 14.6273C14.1957 13.5648 12.5063 13.2656 12.2838 13.2656C12.0555 13.2656 11.9131 13.2875 11.9111 13.4265C11.9092 13.5655 12.076 13.6132 12.3156 13.6853C13.0484 13.9064 13.3371 14.3347 13.3371 14.6399C13.3371 15.196 12.7936 15.4714 12.4844 15.67C12.2335 15.8315 12.0746 15.8706 12.068 16.0076C12.0627 16.1248 12.2269 16.185 12.4831 16.3478C12.7393 16.5107 13.2954 16.8774 13.2954 17.4964C13.2954 17.9744 12.8902 18.3345 12.3143 18.5629C11.9694 18.6999 11.837 18.7608 11.8575 18.8919C11.878 19.0229 12.0641 19.0501 12.3706 19.0501C12.8889 19.0501 14.236 18.7714 14.3188 17.5964C14.334 17.3832 14.2764 17.1786 14.1824 16.9867C13.9911 16.5961 13.6369 16.2631 13.3516 16.0473Z" fill="#FF6D00"/>
<path d="M6.59948 11.4143C6.44325 11.5097 6.24265 11.3839 6.26317 11.2025C6.37836 10.1916 7.16746 9.37145 8.1909 9.28141C9.21433 9.19205 10.1338 9.86264 10.4225 10.8384C10.4741 11.0138 10.2987 11.1721 10.1285 11.1059C9.75649 10.9609 9.12826 10.7921 8.32924 10.8622C7.53022 10.9324 6.94106 11.2071 6.59948 11.4143Z" fill="black"/>
<path d="M16.7814 11.4144C16.9376 11.5098 17.1382 11.384 17.1177 11.2026C17.0025 10.1918 16.2134 9.37155 15.19 9.28152C14.1665 9.19149 13.247 9.86275 12.9584 10.8385C12.9068 11.0139 13.0822 11.1722 13.2523 11.106C13.6244 10.961 14.2526 10.7922 15.0516 10.8624C15.8506 10.9325 16.4398 11.2072 16.7814 11.4144Z" fill="black"/>
</g>
</g>
<defs>
<clipPath id="clip0_206_58">
<rect width="24" height="24" fill="white"/>
</clipPath>
</defs>
</svg>
