<svg width="20" height="18" viewBox="0 0 20 18" fill="none" xmlns="http://www.w3.org/2000/svg">
<g clip-path="url(#clip0_205_124)">
<path d="M9.85437 12.875L7.85938 14.8705C8.24988 14.48 8.88288 14.48 9.27338 14.8705C9.66388 15.261 9.66388 15.8945 9.27338 16.2845L12.1539 13.4035C12.2904 13.267 12.4154 13.122 12.5339 12.973C12.1584 13.062 11.7719 13.113 11.3764 13.113C10.8519 13.113 10.3404 13.03 9.85437 12.875Z" fill="#0A37C7"/>
<path d="M12.969 7.42188C13.219 7.89588 13.0535 8.48637 12.5845 8.75537C12.1055 9.03037 11.494 8.86437 11.2195 8.38538C11.2105 8.36988 11.199 8.35587 11.1895 8.34037C11.4655 8.79988 11.616 9.32537 11.616 9.87537C11.616 10.3104 11.521 10.7294 11.346 11.1139C11.356 11.1139 11.366 11.1154 11.376 11.1154C12.1755 11.1154 12.927 10.8044 13.492 10.2389L13.6035 10.1279C13.6075 10.0439 13.616 9.96036 13.616 9.87586C13.616 9.00137 13.389 8.16237 12.969 7.42188Z" fill="#0A37C7"/>
<path d="M9.27283 14.8723C8.88233 14.4818 8.24933 14.4818 7.85883 14.8723C6.69233 16.0383 4.79333 16.0388 3.62583 14.8723C2.45933 13.7053 2.45933 11.8063 3.62583 10.6393L6.39533 7.87031L6.50683 7.75931C7.07233 7.19381 7.82383 6.88281 8.62283 6.88281C8.63283 6.88281 8.64283 6.88431 8.65283 6.88431C9.44083 6.89231 10.1803 7.20131 10.7388 7.75931C10.8243 7.84481 10.9023 7.93631 10.9763 8.03031C10.9963 8.05581 11.0143 8.08131 11.0333 8.10731C11.0888 8.18281 11.1408 8.26081 11.1888 8.34031C11.1978 8.35581 11.2098 8.36981 11.2188 8.38531C11.4938 8.86431 12.1048 9.03031 12.5838 8.75531C13.0523 8.48631 13.2183 7.89581 12.9683 7.42181C12.9628 7.41131 12.9598 7.40031 12.9543 7.38981C12.9393 7.36381 12.9203 7.34131 12.9048 7.31581C12.8253 7.18281 12.7388 7.05331 12.6463 6.92781C12.6133 6.88281 12.5813 6.83781 12.5468 6.79381C12.4238 6.63781 12.2943 6.48631 12.1528 6.34481C11.5808 5.77281 10.8938 5.35931 10.1448 5.12081C9.65883 4.96581 9.14733 4.88281 8.62283 4.88281C8.22733 4.88281 7.84083 4.93381 7.46533 5.02281C6.57483 5.23331 5.75583 5.68181 5.09283 6.34531L2.21183 9.22581C0.265328 11.1728 0.265328 14.3403 2.21183 16.2868C3.18533 17.2598 4.46383 17.7468 5.74283 17.7468C7.02183 17.7468 8.29933 17.2598 9.27333 16.2868C9.66383 15.8968 9.66333 15.2628 9.27283 14.8723Z" fill="#185DEE"/>
<path d="M17.7898 8.77375L14.9048 11.6537C14.2448 12.3137 13.4248 12.7638 12.5348 12.9738C12.1598 13.0638 11.7698 13.1137 11.3748 13.1137C10.8498 13.1137 10.3398 13.0337 9.85476 12.8787C9.52976 12.7738 9.21477 12.6337 8.91477 12.4637C8.88477 12.4437 8.84977 12.4237 8.81476 12.4037C8.68476 12.3237 8.55477 12.2388 8.42477 12.1438C8.38477 12.1138 8.33977 12.0787 8.29477 12.0487C8.13977 11.9237 7.98977 11.7937 7.84477 11.6537C7.70477 11.5087 7.57477 11.3587 7.44977 11.2037C7.41977 11.1587 7.38477 11.1137 7.34977 11.0687C7.25977 10.9437 7.17477 10.8138 7.09477 10.6838C7.07977 10.6588 7.05977 10.6337 7.04477 10.6087C7.03977 10.5987 7.03477 10.5837 7.02977 10.5737C6.60977 9.83375 6.38477 8.99875 6.38477 8.12375C6.38477 8.03875 6.38977 7.95375 6.39477 7.86875L6.50477 7.75875C7.07477 7.19375 7.82477 6.88375 8.62477 6.88375H8.65477C8.47977 7.26875 8.38477 7.68875 8.38477 8.12375C8.38477 8.67375 8.53477 9.19875 8.80977 9.65875C8.85977 9.73875 8.90977 9.81375 8.96477 9.88875C8.98477 9.91875 9.00477 9.94375 9.02477 9.96875C9.09476 10.0638 9.17477 10.1537 9.25977 10.2387C9.34477 10.3237 9.43477 10.4038 9.52977 10.4738C9.55477 10.4938 9.57977 10.5137 9.60977 10.5337C9.68477 10.5887 9.75977 10.6387 9.83977 10.6887C10.2948 10.9587 10.8048 11.1087 11.3448 11.1137H11.3748C12.1748 11.1137 12.9248 10.8037 13.4948 10.2387L13.6048 10.1287L16.3748 7.35875C17.5398 6.18875 17.5398 4.29375 16.3748 3.12375C15.2048 1.95875 13.3098 1.95875 12.1398 3.12375L11.2998 3.96875L10.7698 4.49875L10.1448 5.11875C9.65977 4.96375 9.14977 4.88375 8.62477 4.88375C8.22977 4.88375 7.83977 4.93375 7.46477 5.02375C7.58477 4.87375 7.70977 4.72875 7.84477 4.59375L9.35476 3.08375L10.7248 1.70875C12.6698 -0.23625 15.8398 -0.23625 17.7898 1.70875C19.7348 3.65875 19.7348 6.82375 17.7898 8.77375Z" fill="#3182F6"/>
</g>
<defs>
<clipPath id="clip0_205_124">
<rect width="20" height="18" fill="white"/>
</clipPath>
</defs>
</svg>
