<svg width="24" height="24" viewBox="0 0 24 24" fill="none" xmlns="http://www.w3.org/2000/svg">
<path fill-rule="evenodd" clip-rule="evenodd" d="M8.25 2.25C7.42157 2.25 6.75 2.92157 6.75 3.75V20.25C6.75 21.0784 7.42157 21.75 8.25 21.75H15.75C16.5784 21.75 17.25 21.0784 17.25 20.25V3.75C17.25 2.92157 16.5784 2.25 15.75 2.25H14.25V3C14.25 3.41421 13.9142 3.75 13.5 3.75H10.5C10.0858 3.75 9.75 3.41421 9.75 3V2.25H8.25ZM5.25 3.75C5.25 2.09315 6.59315 0.75 8.25 0.75H15.75C17.4069 0.75 18.75 2.09315 18.75 3.75V20.25C18.75 21.9069 17.4069 23.25 15.75 23.25H8.25C6.59315 23.25 5.25 21.9069 5.25 20.25V3.75ZM9.75 20.25C9.75 19.8358 10.0858 19.5 10.5 19.5H13.5C13.9142 19.5 14.25 19.8358 14.25 20.25C14.25 20.6642 13.9142 21 13.5 21H10.5C10.0858 21 9.75 20.6642 9.75 20.25Z" fill="#3E4145"/>
</svg>
