<svg width="18" height="17" viewBox="0 0 18 17" fill="none" xmlns="http://www.w3.org/2000/svg">
<g clip-path="url(#clip0_206_77)">
<path d="M12.9202 1.84439C10.9859 2.84121 8.86368 3.52379 6.62054 3.82498C5.76376 3.94002 4.88902 3.99946 4 3.99946C1.79086 3.99946 0 5.79032 0 7.99946C0 10.0379 1.52477 11.7202 3.49597 11.968C3.78782 13.1057 4.20979 14.2263 4.76704 15.3093C5.1636 16.08 6.10902 16.3081 6.81763 15.899L7.68366 15.399C8.41014 14.9795 8.62418 14.0779 8.27228 13.3777C8.10619 13.0472 7.95684 12.7123 7.82394 12.3741C9.62428 12.732 11.3353 13.3378 12.9201 14.1545C13.6189 12.2342 14 10.1613 14 7.99945C14 5.83757 13.6189 3.76471 12.9202 1.84439Z" fill="#3D92F7"/>
<path d="M14.2428 1.09601C15.0553 3.242 15.5 5.56879 15.5 7.99945C15.5 10.4301 15.0553 12.7569 14.2428 14.9029L14.2135 14.9802C14.0652 15.3669 14.2585 15.8007 14.6452 15.949C15.032 16.0973 15.4657 15.904 15.6141 15.5173C15.7002 15.2928 15.7825 15.0665 15.8611 14.8383C16.4152 13.2288 16.7791 11.5311 16.9262 9.77232C17.5645 9.43828 18 8.77018 18 7.99946C18 7.22874 17.5645 6.56065 16.9262 6.22661C16.7791 4.46787 16.4152 2.77014 15.8611 1.16059C15.7825 0.932465 15.7002 0.706123 15.6141 0.481639C15.4657 0.094892 15.032 -0.0983881 14.6452 0.0499355C14.2585 0.198259 14.0652 0.632019 14.2135 1.01877L14.2428 1.09601C14.2428 1.09597 14.2427 1.09605 14.2428 1.09601Z" fill="#3D92F7"/>
</g>
<defs>
<clipPath id="clip0_206_77">
<rect width="18" height="17" fill="white"/>
</clipPath>
</defs>
</svg>
