<svg width="18" height="16" viewBox="0 0 18 16" fill="none" xmlns="http://www.w3.org/2000/svg">
<g clip-path="url(#clip0_205_134)">
<path d="M15.549 4.99131C15.287 4.37781 14.7405 3.94831 14.103 3.82031V6.88081C14.103 7.20731 13.985 7.50281 13.7955 7.73931C13.5425 8.05431 13.159 8.26031 12.7235 8.26031H5.27502C4.83952 8.26031 4.45602 8.05431 4.20302 7.73931C4.01352 7.50331 3.89552 7.20731 3.89552 6.88081V3.82031C3.25802 3.94831 2.71102 4.37781 2.44952 4.99131L0.666016 9.17031H17.3325L15.549 4.99131Z" fill="#2085F7"/>
<path d="M0.666016 9.16406V14.0371C0.666016 14.9761 1.42752 15.7376 2.36652 15.7376H15.632C16.571 15.7376 17.3325 14.9761 17.3325 14.0371V9.16406H0.666016Z" fill="#64A7FF"/>
<path d="M4.20398 7.7355L7.44948 5.1485L3.89648 2.1875V6.877C3.89648 7.2035 4.01448 7.499 4.20398 7.7355Z" fill="#D0D5DA"/>
<path d="M10.5508 5.1485L13.7963 7.7355C13.9858 7.4995 14.1038 7.2035 14.1038 6.877V2.1875L10.5508 5.1485Z" fill="#D0D5DA"/>
<path d="M7.44948 5.1485L8.06098 5.658C8.62648 6.0965 9.37398 6.0965 9.93898 5.658L10.5505 5.1485L14.1035 2.1875L9.93898 5.057C9.37348 5.4465 8.62598 5.4465 8.06098 5.057L3.89648 2.1875L7.44948 5.1485Z" fill="#AFB7C0"/>
<path d="M9.94008 5.65794C9.37458 6.09644 8.62708 6.09644 8.06208 5.65794L7.45058 5.14844L4.20508 7.73544C4.45808 8.05044 4.84158 8.25644 5.27708 8.25644H12.7256C13.1611 8.25644 13.5446 8.05044 13.7976 7.73544L10.5521 5.14844L9.94008 5.65794Z" fill="#E5E9EE"/>
<path d="M8.06148 5.05831C8.62698 5.44781 9.37448 5.44781 9.93948 5.05831L14.104 2.18881V1.63731C14.104 0.875314 13.4865 0.257812 12.7245 0.257812H5.27598C4.51448 0.257812 3.89648 0.875314 3.89648 1.63731V2.18881L8.06148 5.05831Z" fill="#E5E9EE"/>
</g>
<defs>
<clipPath id="clip0_205_134">
<rect width="18" height="16" fill="white"/>
</clipPath>
</defs>
</svg>
