<svg width="20" height="20" viewBox="0 0 20 20" fill="none" xmlns="http://www.w3.org/2000/svg">
<g clip-path="url(#clip0_205_109)">
<path d="M8.34044 13.8398C7.65153 13.7803 6.95431 13.75 6.25 13.75H5.5C3.01472 13.75 1 11.7353 1 9.25C1 6.76472 3.01472 4.75 5.5 4.75H6.25C6.95431 4.75 7.65153 4.71966 8.34044 4.66022M8.34044 13.8398C8.59329 14.8015 8.92372 15.7317 9.32463 16.6234C9.57209 17.1738 9.38422 17.8328 8.8616 18.1345L8.20529 18.5134C7.6539 18.8318 6.9456 18.6306 6.67841 18.0527C6.0518 16.6973 5.56541 15.2639 5.23786 13.771M8.34044 13.8398C7.95517 12.3745 7.75 10.8362 7.75 9.25C7.75 7.66379 7.95518 6.1255 8.34044 4.66022M8.34044 13.8398C11.5 14.1124 14.4845 14.9972 17.1747 16.3749M8.34044 4.66022C11.5 4.3876 14.4845 3.50283 17.1747 2.12509M17.1747 16.3749C17.057 16.7541 16.9302 17.1292 16.7944 17.5M17.1747 16.3749C17.7097 14.6517 18.0557 12.8454 18.1886 10.9801M17.1747 2.12509C17.057 1.74595 16.9302 1.37083 16.7944 1M17.1747 2.12509C17.7097 3.84827 18.0557 5.65462 18.1886 7.51991M18.1886 7.51991C18.6844 7.93264 19 8.55446 19 9.25C19 9.94553 18.6844 10.5674 18.1886 10.9801M18.1886 7.51991C18.2293 8.09131 18.25 8.66824 18.25 9.25C18.25 9.83176 18.2293 10.4087 18.1886 10.9801" stroke="#3E4145" stroke-width="1.5" stroke-linecap="round" stroke-linejoin="round"/>
</g>
<defs>
<clipPath id="clip0_205_109">
<rect width="20" height="20" fill="white"/>
</clipPath>
</defs>
</svg>
