<svg width="16" height="20" viewBox="0 0 16 20" fill="none" xmlns="http://www.w3.org/2000/svg">
<g clip-path="url(#clip0_205_130)">
<path d="M15.3316 7.81637C15.1926 3.95787 12.0276 0.837868 8.16756 0.751868C4.03956 0.659868 0.664062 3.97887 0.664062 8.08637C0.664062 9.32987 0.974563 10.5009 1.52056 11.5269L1.51756 11.5249C1.52556 11.5394 1.53306 11.5524 1.54106 11.5664C1.56156 11.6044 1.58356 11.6414 1.60506 11.6794C1.62706 11.7184 1.64956 11.7574 1.67156 11.7949C1.70706 11.8559 1.74356 11.9159 1.78106 11.9754C1.80256 12.0094 1.82356 12.0419 1.84506 12.0749C1.87256 12.1174 1.89956 12.1604 1.92756 12.2024C2.96656 13.7494 3.85006 13.8604 4.16306 15.0409H7.33806V11.5099L5.64356 9.81537C5.36956 9.54137 5.36956 9.09737 5.64356 8.82337C5.91756 8.54937 6.36156 8.54937 6.63556 8.82337L8.01106 10.1989L9.36456 8.84537C9.63856 8.57137 10.0826 8.57137 10.3566 8.84537C10.6306 9.11937 10.6306 9.56337 10.3566 9.83737L8.66206 11.5319V15.0404H11.8371C12.1511 13.8554 13.0396 13.7479 14.0831 12.1874C14.0841 12.1864 14.0846 12.1849 14.0856 12.1839C14.1356 12.1094 14.1856 12.0309 14.2361 11.9494C14.2621 11.9074 14.2876 11.8654 14.3126 11.8229C14.3696 11.7274 14.4266 11.6294 14.4836 11.5244L14.4791 11.5269C15.0646 10.4264 15.3801 9.16037 15.3316 7.81637Z" fill="#FFC33A"/>
<path d="M8.6615 15.0397V11.5312L10.356 9.83669C10.63 9.56269 10.63 9.11869 10.356 8.84469C10.082 8.57069 9.638 8.57069 9.364 8.84469L8.0105 10.1982L6.635 8.82269C6.361 8.54869 5.917 8.54869 5.643 8.82269C5.369 9.09669 5.369 9.54069 5.643 9.81469L7.3375 11.5092V15.0402L8.6615 15.0397Z" fill="#FF9000"/>
<path d="M4.17773 15.0396C4.18123 15.1186 4.18373 15.2006 4.18473 15.2866V16.7261C4.18473 18.1186 5.41373 19.2476 6.80673 19.2476H9.19473C10.5872 19.2476 11.8317 18.1186 11.8317 16.7261V15.3421C11.8317 15.2351 11.8347 15.1356 11.8392 15.0391L4.17773 15.0396Z" fill="#7D8996"/>
</g>
<defs>
<clipPath id="clip0_205_130">
<rect width="16" height="20" fill="white"/>
</clipPath>
</defs>
</svg>
