<svg width="4" height="18" viewBox="0 0 4 18" fill="none" xmlns="http://www.w3.org/2000/svg">
<g clip-path="url(#clip0_205_103)">
<path d="M1.99922 0.601562C2.99333 0.601562 3.79922 1.40745 3.79922 2.40156C3.79922 3.39567 2.99333 4.20156 1.99922 4.20156C1.00511 4.20156 0.199219 3.39567 0.199219 2.40156C0.199219 1.40745 1.00511 0.601562 1.99922 0.601562Z" fill="#B7BBBF"/>
<path d="M1.99922 7.20157C2.99333 7.20157 3.79922 8.00746 3.79922 9.00157C3.79922 9.99569 2.99333 10.8016 1.99922 10.8016C1.00511 10.8016 0.199219 9.99568 0.199219 9.00157C0.199219 8.00746 1.00511 7.20157 1.99922 7.20157Z" fill="#B7BBBF"/>
<path d="M3.79922 15.6016C3.79922 14.6074 2.99333 13.8016 1.99922 13.8016C1.00511 13.8016 0.199219 14.6074 0.199219 15.6016C0.199219 16.5957 1.00511 17.4016 1.99922 17.4016C2.99333 17.4016 3.79922 16.5957 3.79922 15.6016Z" fill="#B7BBBF"/>
</g>
<defs>
<clipPath id="clip0_205_103">
<rect width="4" height="18" fill="white"/>
</clipPath>
</defs>
</svg>
